<svg width="48" height="26" viewBox="0 0 48 26" fill="none" xmlns="http://www.w3.org/2000/svg">
<g filter="url(#filter0_f_2021_433)">
<path d="M20.443 7.01231V19.8398C20.443 20.133 20.3234 20.4143 20.1104 20.6217C19.8975 20.8291 19.6087 20.9456 19.3075 20.9456H6.13552C5.83436 20.9456 5.54554 20.8291 5.33258 20.6217C5.11963 20.4143 5 20.133 5 19.8398V7.01231C5 6.71903 5.11963 6.43776 5.33258 6.23038C5.54554 6.023 5.83436 5.90649 6.13552 5.90649H19.3075C19.6087 5.90649 19.8975 6.023 20.1104 6.23038C20.3234 6.43776 20.443 6.71903 20.443 7.01231ZM9.54206 11.6567H7.27103V18.7339H9.54206V11.6567ZM9.74646 9.22394C9.74765 9.05665 9.715 8.89076 9.65037 8.73576C9.58573 8.58076 9.49038 8.43967 9.36975 8.32055C9.24912 8.20144 9.10559 8.10663 8.94733 8.04154C8.78908 7.97645 8.61921 7.94235 8.44743 7.94119H8.40655C8.0572 7.94119 7.72217 8.07634 7.47515 8.3169C7.22812 8.55746 7.08935 8.88373 7.08935 9.22394C7.08935 9.56414 7.22812 9.89041 7.47515 10.131C7.72217 10.3715 8.0572 10.5067 8.40655 10.5067C8.57834 10.5108 8.74929 10.4819 8.90962 10.4217C9.06995 10.3614 9.21651 10.271 9.34095 10.1556C9.46538 10.0401 9.56524 9.90197 9.63482 9.74895C9.70439 9.59593 9.74233 9.43105 9.74646 9.26375V9.22394ZM18.172 14.4345C18.172 12.3069 16.7821 11.4798 15.4013 11.4798C14.9492 11.4578 14.4991 11.5515 14.0958 11.7518C13.6926 11.952 13.3502 12.2517 13.103 12.621H13.0395V11.6567H10.9047V18.7339H13.1757V14.9697C13.1429 14.5842 13.2676 14.2017 13.5227 13.9052C13.7779 13.6087 14.1428 13.4222 14.5383 13.3862H14.6246C15.3468 13.3862 15.8828 13.8285 15.8828 14.9432V18.7339H18.1538L18.172 14.4345Z" fill="white"/>
<path d="M37.9018 12.5187L42.396 7.40283H41.3314L37.4274 11.844L34.3116 7.40283H30.717L35.4298 14.1193L30.717 19.4834H31.7817L35.9017 14.7924L39.1929 19.4834H42.7875M32.1659 8.18902H33.8015L41.3306 18.7358H39.6947" fill="white"/>
</g>
<defs>
<filter id="filter0_f_2021_433" x="0" y="0.906494" width="47.7876" height="25.0391" filterUnits="userSpaceOnUse" color-interpolation-filters="sRGB">
<feFlood flood-opacity="0" result="BackgroundImageFix"/>
<feBlend mode="normal" in="SourceGraphic" in2="BackgroundImageFix" result="shape"/>
<feGaussianBlur stdDeviation="2.5" result="effect1_foregroundBlur_2021_433"/>
</filter>
</defs>
</svg>
