<svg width="263" height="55" viewBox="0 0 263 55" fill="none" xmlns="http://www.w3.org/2000/svg">
<g clip-path="url(#clip0_2021_240)">
<path d="M29.3335 23.5172V25.5718L14.745 34.1695L0 25.1293V22.3477C1.47137 6.44828 15.6216 0 15.6216 0H17.2495C10.8318 13.8448 17.0304 22.158 29.3335 23.4856V23.5172Z" fill="black"/>
<path d="M29.3335 30.4713V34.3276L16.8425 53.8621C16.4042 54.5575 15.6216 55 14.7763 55C13.9311 55 13.1797 54.5891 12.7102 53.8621L0 34.0431V30.3448L14.745 39.954L29.3022 30.4713H29.3335Z" fill="black"/>
<path d="M50.6214 15.6149C49.5257 15.6149 48.6492 16.5 48.6492 17.6063V41.3448C48.6492 42.4512 49.5257 43.3362 50.6214 43.3362H66.3056L68.2779 41.3448V39.3534H52.5937V31.4828H66.3996V27.5H52.5937V19.5977H68.2779V17.6063L66.3056 15.6149H50.6214Z" fill="black"/>
<path d="M94.1365 15.6149H90.192H83.336L81.3638 17.6063V19.5661H90.192V41.3448V41.3764V43.3362H92.133H94.1052H94.1365V19.5661H102.933V17.6063L100.961 15.6149H94.1365Z" fill="black"/>
<path d="M133.707 15.6149V27.5H119.995V15.6149H118.023L116.082 17.6063V27.5V41.3448V43.3362H118.023H119.995V31.4512H133.707V43.3362H135.679H137.651V41.3448V27.5V17.6063L135.679 15.6149H133.707Z" fill="black"/>
<path d="M173.559 23.5488C173.559 21.3678 172.808 19.5029 171.274 17.954C169.74 16.4052 167.893 15.6465 165.733 15.6465H153.962C152.866 15.6465 151.99 16.5316 151.99 17.6379V41.3764C151.99 42.4827 152.866 43.3678 153.962 43.3678H165.733C167.893 43.3678 169.74 42.6092 171.274 41.0603C172.808 39.5115 173.559 37.6465 173.559 35.4655C173.559 33.2845 172.808 31.4195 171.274 29.8707C171.149 29.7442 171.024 29.6494 170.93 29.523C171.055 29.4282 171.18 29.3017 171.274 29.1753C172.808 27.6264 173.559 25.7615 173.559 23.5805V23.5488ZM168.488 38.2155C167.737 38.9741 166.797 39.385 165.702 39.385H155.903V31.4827H165.702C166.797 31.4827 167.705 31.8621 168.488 32.6523C169.239 33.4109 169.646 34.3592 169.646 35.4655C169.646 36.5718 169.271 37.4885 168.488 38.2787V38.2155ZM168.488 26.3305C167.737 27.0891 166.797 27.5 165.702 27.5H155.903V19.5977H165.702C166.797 19.5977 167.705 19.977 168.488 20.7672C169.239 21.5259 169.646 22.4741 169.646 23.5805C169.646 24.6868 169.271 25.6034 168.488 26.3937V26.3305Z" fill="black"/>
<path d="M197.602 15.6149C195.348 15.6149 193.376 16.8477 192.562 19.408L185.205 43.3362H189.337L191.31 36.6983H203.863C203.863 36.6667 205.836 43.3362 205.836 43.3362H210.031L202.674 19.408C201.86 16.8477 199.888 15.6149 197.602 15.6149ZM192.437 32.9368L196.1 20.6408C196.35 19.7874 196.82 19.3764 197.633 19.3764C198.447 19.3764 198.886 19.7874 199.167 20.6408L202.799 32.9368H192.468H192.437Z" fill="black"/>
<path d="M244.655 23.5488C244.655 21.3678 243.904 19.5029 242.37 17.954C240.836 16.4052 238.989 15.6465 236.828 15.6465H225.057C223.962 15.6465 223.085 16.5316 223.085 17.6379V43.3678H226.998V31.4827H234.856L240.303 43.3678H244.624L239.145 31.4195L239.051 31.1667C240.272 30.819 241.368 30.1552 242.338 29.1753C243.872 27.6264 244.624 25.7615 244.624 23.5805L244.655 23.5488ZM239.583 26.3305C238.832 27.0891 237.893 27.5 236.797 27.5H226.998V19.5977H236.797C237.893 19.5977 238.801 19.977 239.583 20.7672C240.335 21.5259 240.742 22.4741 240.742 23.5805C240.742 24.6868 240.366 25.6034 239.583 26.3937V26.3305Z" fill="black"/>
<path d="M259.055 15.6149V17.6063V43.3362H261.028H263V41.3448V15.6149H259.055Z" fill="black"/>
</g>
<defs>
<clipPath id="clip0_2021_240">
<rect width="263" height="55" fill="white"/>
</clipPath>
</defs>
</svg>
