<svg width="563" height="306" viewBox="0 0 563 306" fill="none" xmlns="http://www.w3.org/2000/svg">
<path d="M104.075 5.21289C105.49 4.9672 106.947 5.16222 108.247 5.77246L108.522 5.91016L127.854 16.0439L128.164 16.2168C129.589 17.0583 130.669 18.378 131.214 19.9404L131.322 20.2793L133.625 28.1543L147.077 37.6006H173.656L191.802 18.0986L192.057 17.8389C193.359 16.5775 195.104 15.8672 196.927 15.8672H218.598C220.116 15.8673 221.59 16.3604 222.8 17.2686L223.038 17.4561L234.553 26.9053L234.79 27.1094C235.874 28.083 236.626 29.3711 236.943 30.793L237.005 31.0996L241.645 57.3926L271.226 85.3594L346.967 121.872L470.717 155.784H470.716C471.036 155.872 471.349 155.981 471.653 156.113L471.954 156.253L553.55 196.354H553.551L553.852 196.511C556.814 198.147 558.181 201.681 557.092 204.886L556.975 205.205L539.72 248.943C538.291 252.564 534.201 254.303 530.628 252.882L530.284 252.734L407.541 196.301L380.837 245.782C380.012 247.311 378.65 248.474 377.021 249.053L376.692 249.161L339.506 260.339L308.21 298.443C306.88 300.062 304.895 301 302.801 301H145.849C145.137 301 144.43 300.892 143.752 300.679L143.463 300.581L113.705 289.796C111.124 288.861 109.336 286.507 109.113 283.787L109.097 283.522L100.621 91.1211L80.7227 60.8291L10.749 43.9727C7.02448 43.0754 4.71295 39.3509 5.5625 35.6152L8.81543 21.3145L8.88965 21.0186C9.71783 17.9891 12.475 15.8673 15.6406 15.8672H55.4658L103.773 5.27246L104.075 5.21289Z" stroke="white" stroke-width="10"/>
<path d="M187.213 97.957V100.116L172 109.151L156.624 99.6511V96.7279C158.158 80.0192 172.914 73.2427 172.914 73.2427H174.612C167.919 87.7922 174.383 96.5286 187.213 97.9237V97.957Z" fill="#FF0012"/>
<path d="M187.213 105.104V109.146L174.187 129.618C173.73 130.347 172.914 130.811 172.033 130.811C171.151 130.811 170.368 130.38 169.878 129.618L156.624 108.848V104.972L172 115.042L187.18 105.104H187.213Z" fill="#FF0012"/>
</svg>
