<svg width="163" height="49" viewBox="0 0 163 49" fill="none" xmlns="http://www.w3.org/2000/svg">
<path d="M45.0191 24.1543V39.8919H40.1895V37.586C39.2121 39.2579 37.6022 40.0649 35.4174 40.0649C33.635 40.0649 32.1401 39.4884 31.0477 38.2779C29.9553 37.0672 29.3804 35.4531 29.3804 33.3779V24.1543H34.1525V32.686C34.1525 33.7237 34.44 34.4731 34.9575 35.0496C35.4749 35.626 36.2223 35.8567 37.1423 35.8567C38.0622 35.8567 38.8096 35.5684 39.3271 35.0496C39.8445 34.5308 40.132 33.7237 40.132 32.686V24.1543H45.0191Z" fill="url(#paint0_linear_14_754)"/>
<path d="M52.4937 24.1539V27.0939C53.6436 25.0186 55.1384 23.981 56.9783 23.981V28.881H55.7709C54.6785 28.881 53.816 29.1692 53.2986 29.688C52.7237 30.2068 52.4937 31.1292 52.4937 32.4551V39.8916H47.6641V24.1539H52.4937Z" fill="url(#paint1_linear_14_754)"/>
<path d="M64.4526 26.2293C65.545 24.7305 67.0399 23.9811 69.0522 23.9811C71.0646 23.9811 72.7319 24.7305 74.1118 26.2293C75.4918 27.7281 76.1816 29.6881 76.1816 32.0517C76.1816 34.4152 75.4918 36.3176 74.1118 37.8164C72.7319 39.3152 71.0646 40.0646 69.0522 40.0646C67.0973 40.0646 65.545 39.2576 64.3951 37.5857V39.8916H59.5654V19.0234H64.3951V26.2293H64.4526ZM70.2596 34.934C70.9496 34.2422 71.2945 33.3199 71.2945 32.0517C71.2945 30.7834 70.9496 29.8611 70.2596 29.1693C69.5696 28.4776 68.7647 28.1317 67.8448 28.1317C66.9249 28.1317 66.12 28.4776 65.43 29.1117C64.74 29.8034 64.3951 30.7257 64.3951 31.994C64.3951 33.2622 64.74 34.1846 65.43 34.8764C66.12 35.5681 66.9249 35.914 67.8448 35.914C68.7647 35.914 69.5696 35.5681 70.2596 34.934Z" fill="url(#paint2_linear_14_754)"/>
<path d="M85.9564 40.1221C83.6563 40.1221 81.8162 39.3727 80.3215 37.9316C78.8841 36.4327 78.1367 34.4727 78.1367 32.0516C78.1367 29.6304 78.8841 27.6704 80.3215 26.2292C81.7589 24.788 83.6563 24.0386 85.9564 24.0386C88.2558 24.0386 90.1532 24.7304 91.706 26.1716C93.2007 27.6127 94.0053 29.5727 94.0053 32.1092C94.0053 32.628 93.948 33.1468 93.8907 33.608H83.0816C83.1962 34.2998 83.4836 34.8763 84.0009 35.3375C84.519 35.7986 85.0937 36.0292 85.7264 36.0292C86.3583 36.0292 86.8184 35.9716 87.1057 35.8563C87.3938 35.741 87.6238 35.6256 87.7957 35.5104C87.9111 35.3951 88.1412 35.1645 88.3712 34.8763H93.6034C93.1434 36.4327 92.2806 37.7586 90.9005 38.681C89.4058 39.6033 87.7957 40.1221 85.9564 40.1221ZM88.0258 28.7656C87.4511 28.3045 86.8184 28.0739 86.0137 28.0739C85.2083 28.0739 84.5763 28.3045 84.059 28.7656C83.5417 29.2268 83.1962 29.8033 83.0816 30.5527H88.9458C88.8885 29.861 88.5431 29.2268 88.0258 28.7656Z" fill="url(#paint3_linear_14_754)"/>
<path d="M101.192 37.2401C101.192 37.9896 100.962 38.6237 100.445 39.1425C99.9272 39.6613 99.2945 39.892 98.5471 39.892C97.7998 39.892 97.167 39.6613 96.6497 39.1425C96.1324 38.6237 95.9023 37.9896 95.9023 37.2401C95.9023 36.4908 96.1324 35.8566 96.6497 35.3378C97.167 34.8189 97.7998 34.5884 98.5471 34.5884C99.2945 34.5884 99.9272 34.8189 100.445 35.3378C100.962 35.9143 101.192 36.4908 101.192 37.2401Z" fill="url(#paint4_linear_14_754)"/>
<path d="M110.967 40.1221C108.667 40.1221 106.827 39.3727 105.332 37.9316C103.894 36.4327 103.147 34.4727 103.147 32.0516C103.147 29.6304 103.894 27.6704 105.332 26.2292C106.769 24.788 108.667 24.0386 110.967 24.0386C113.267 24.0386 115.163 24.7304 116.716 26.1716C118.211 27.6127 119.016 29.5727 119.016 32.1092C119.016 32.628 118.958 33.1468 118.901 33.608H108.092C108.206 34.2998 108.495 34.8763 109.012 35.3375C109.529 35.7986 110.104 36.0292 110.737 36.0292C111.369 36.0292 111.829 35.9716 112.117 35.8563C112.404 35.741 112.634 35.6256 112.807 35.5104C112.921 35.3951 113.151 35.1645 113.381 34.8763H118.614C118.154 36.4327 117.234 37.7586 115.912 38.681C114.474 39.6033 112.864 40.1221 110.967 40.1221ZM113.037 28.7656C112.461 28.3045 111.829 28.0739 111.024 28.0739C110.277 28.0739 109.587 28.3045 109.069 28.7656C108.552 29.2268 108.206 29.8033 108.092 30.5527H113.956C113.899 29.861 113.611 29.2268 113.037 28.7656Z" fill="url(#paint5_linear_14_754)"/>
<path d="M128.79 35.7986H130.514V39.8916H128.042C126.26 39.8916 124.938 39.488 123.96 38.7386C122.983 37.9892 122.523 36.6056 122.523 34.7033V28.1316H121.085V24.0963H122.523V20.2339H127.352V24.0963H130.514V28.1316H127.352V34.7033C127.295 35.4527 127.812 35.7986 128.79 35.7986Z" fill="url(#paint6_linear_14_754)"/>
<path d="M138.047 19.0234V26.4599C139.024 24.7881 140.635 23.9811 142.819 23.9811C144.601 23.9811 146.097 24.5576 147.189 25.7681C148.282 26.9787 148.856 28.5928 148.856 30.6681V39.8916H144.084V31.3599C144.084 30.3222 143.797 29.5728 143.279 28.9964C142.762 28.4199 142.014 28.1893 141.095 28.1893C140.175 28.1893 139.427 28.4776 138.91 28.9964C138.392 29.5728 138.104 30.3222 138.104 31.3599V39.8916H133.275V19.0234H138.047Z" fill="url(#paint7_linear_14_754)"/>
<path d="M14.5464 19.0236L19.3761 15.0459L14.7764 9.33887L14.5464 19.0236Z" fill="url(#paint8_linear_14_754)"/>
<path d="M26.6777 39.2002L25.7003 39.892L21.4457 37.7591L19.6058 31.7638L13.0513 28.3626H15.6386L10.0615 25.9414L15.4086 23.1168L11.7289 23.5779L20.4682 16.4297L26.6777 24.1544V35.9721H24.7804L24.3779 36.6061L26.3328 38.9121H26.7353V39.2002H26.6777ZM24.7229 27.7861L22.538 24.9614L19.3183 24.3273L21.1582 26.2873L22.768 26.1144L24.7229 27.7861Z" fill="url(#paint9_linear_14_754)"/>
<defs>
<linearGradient id="paint0_linear_14_754" x1="10.0618" y1="24.7308" x2="148.856" y2="24.7308" gradientUnits="userSpaceOnUse">
<stop stop-color="#CC2B5E"/>
<stop offset="1" stop-color="#753A88"/>
</linearGradient>
<linearGradient id="paint1_linear_14_754" x1="10.0619" y1="24.7304" x2="148.856" y2="24.7304" gradientUnits="userSpaceOnUse">
<stop stop-color="#CC2B5E"/>
<stop offset="1" stop-color="#753A88"/>
</linearGradient>
<linearGradient id="paint2_linear_14_754" x1="10.0618" y1="24.7305" x2="148.856" y2="24.7305" gradientUnits="userSpaceOnUse">
<stop stop-color="#CC2B5E"/>
<stop offset="1" stop-color="#753A88"/>
</linearGradient>
<linearGradient id="paint3_linear_14_754" x1="10.0619" y1="24.7304" x2="148.856" y2="24.7304" gradientUnits="userSpaceOnUse">
<stop stop-color="#CC2B5E"/>
<stop offset="1" stop-color="#753A88"/>
</linearGradient>
<linearGradient id="paint4_linear_14_754" x1="10.0614" y1="24.7308" x2="148.856" y2="24.7308" gradientUnits="userSpaceOnUse">
<stop stop-color="#CC2B5E"/>
<stop offset="1" stop-color="#753A88"/>
</linearGradient>
<linearGradient id="paint5_linear_14_754" x1="10.0619" y1="24.7304" x2="148.856" y2="24.7304" gradientUnits="userSpaceOnUse">
<stop stop-color="#CC2B5E"/>
<stop offset="1" stop-color="#753A88"/>
</linearGradient>
<linearGradient id="paint6_linear_14_754" x1="10.0616" y1="24.7304" x2="148.856" y2="24.7304" gradientUnits="userSpaceOnUse">
<stop stop-color="#CC2B5E"/>
<stop offset="1" stop-color="#753A88"/>
</linearGradient>
<linearGradient id="paint7_linear_14_754" x1="10.0619" y1="24.7305" x2="148.856" y2="24.7305" gradientUnits="userSpaceOnUse">
<stop stop-color="#CC2B5E"/>
<stop offset="1" stop-color="#753A88"/>
</linearGradient>
<linearGradient id="paint8_linear_14_754" x1="10.0617" y1="24.7307" x2="148.856" y2="24.7307" gradientUnits="userSpaceOnUse">
<stop stop-color="#CC2B5E"/>
<stop offset="1" stop-color="#753A88"/>
</linearGradient>
<linearGradient id="paint9_linear_14_754" x1="10.0615" y1="24.7309" x2="148.856" y2="24.7309" gradientUnits="userSpaceOnUse">
<stop stop-color="#CC2B5E"/>
<stop offset="1" stop-color="#753A88"/>
</linearGradient>
</defs>
</svg>
