<svg width="111" height="71" viewBox="0 0 111 71" fill="none" xmlns="http://www.w3.org/2000/svg">
<path d="M0 54.9639H16.0008V58.4762H4.68315V60.769H15.7178V64.297H4.68315V66.8337H16.1959V70.4261H0" fill="black"/>
<path d="M25.4398 70.4471V58.669H18.9282V55.0317H36.7496V58.6709H30.2224V70.4471H25.4398Z" fill="black"/>
<path d="M39.7661 70.4198V55.0317H44.4902V60.6554H54.6527V55.0317H59.3749V70.4217H54.6527V64.3571H44.4902V70.4198H39.7661Z" fill="black"/>
<path d="M63.3809 55.0317H68.6865L78.3513 64.7337V55.0317H83.013V70.4471H78.3435L68.064 60.2378V70.4471H63.3809V55.0317Z" fill="black"/>
<path d="M102.805 54.9575H93.4792L85.8184 70.4256H90.6674L92.0177 67.602L93.7153 64.115L96.4159 58.544H99.7898L102.625 64.1228L104.381 67.6098L105.808 70.4334H110.928L102.805 54.9575Z" fill="black"/>
<path d="M25.4398 70.4471V58.669H18.9282V55.0317H36.7496V58.6709H30.2224V70.4471H25.4398Z" fill="black"/>
<path d="M39.7661 70.4198V55.0317H44.4902V60.6554H54.6527V55.0317H59.3749V70.4217H54.6527V64.3571H44.4902V70.4198H39.7661Z" fill="black"/>
<path d="M63.3809 55.0317H68.6865L78.3513 64.7337V55.0317H83.013V70.4471H78.3435L68.064 60.2378V70.4471H63.3809V55.0317Z" fill="black"/>
<path d="M102.805 54.9575H93.4792L85.8184 70.4256H90.6674L92.0177 67.602L93.7153 64.115L96.4159 58.544H99.7898L102.625 64.1228L104.381 67.6098L105.808 70.4334H110.928L102.805 54.9575Z" fill="black"/>
<path d="M16.0008 49.2423V45.73H0V49.2423H16.0008Z" fill="black"/>
<path d="M58.6225 5.28653C58.6306 5.30049 58.6348 5.31633 58.6348 5.33245C58.6348 5.34856 58.6306 5.3644 58.6225 5.37836L57.0011 7.84941L55.4183 10.2534C55.4097 10.2647 55.3986 10.2738 55.3859 10.28C55.3733 10.2863 55.3593 10.2895 55.3452 10.2895C55.331 10.2895 55.317 10.2863 55.3044 10.28C55.2917 10.2738 55.2806 10.2647 55.272 10.2534L53.6892 7.84941L52.0651 5.38295C52.057 5.36899 52.0527 5.35316 52.0527 5.33704C52.0527 5.32092 52.057 5.30508 52.0651 5.29112L53.6892 2.82008L55.272 0.416983C55.2806 0.405752 55.2917 0.39665 55.3044 0.390384C55.317 0.384119 55.331 0.380859 55.3452 0.380859C55.3593 0.380859 55.3733 0.384119 55.3859 0.390384C55.3986 0.39665 55.4097 0.405752 55.4183 0.416983L57.0011 2.82008L58.6225 5.28653Z" fill="black"/>
<path d="M63.0559 23.8004H56.5343C56.5107 23.7993 56.4885 23.7891 56.4722 23.772C56.4559 23.7549 56.4469 23.7322 56.4469 23.7086V12.8153C56.4481 12.7917 56.4583 12.7695 56.4754 12.7533C56.4925 12.737 56.5153 12.728 56.5389 12.728H57.1183C57.134 12.7284 57.1494 12.7329 57.1629 12.7409C57.1764 12.749 57.1877 12.7603 57.1955 12.7739L63.1377 23.671C63.1439 23.6848 63.1466 23.7 63.1456 23.7151C63.1445 23.7302 63.1397 23.7448 63.1316 23.7577C63.1235 23.7705 63.1123 23.7811 63.0991 23.7886C63.0859 23.796 63.071 23.8001 63.0559 23.8004ZM54.3472 42.5964L42.5337 34.3641C42.5225 34.3556 42.5134 34.3445 42.5071 34.3319C42.5008 34.3192 42.4976 34.3053 42.4976 34.2911C42.4976 34.277 42.5008 34.2631 42.5071 34.2504C42.5134 34.2378 42.5225 34.2267 42.5337 34.2181L54.3491 26.6581C54.3625 26.6509 54.3776 26.6471 54.3929 26.6471C54.4081 26.6472 54.4232 26.651 54.4366 26.6583C54.45 26.6656 54.4614 26.6761 54.4697 26.6889C54.478 26.7017 54.483 26.7163 54.4843 26.7315V42.5257C54.4828 42.5409 54.4775 42.5555 54.4689 42.5682C54.4602 42.5808 54.4486 42.5911 54.435 42.5982C54.4214 42.6052 54.4062 42.6087 54.3909 42.6084C54.3756 42.6081 54.3606 42.6039 54.3472 42.5964ZM56.583 26.6764L68.1712 34.2191C68.1832 34.2269 68.193 34.2376 68.1998 34.2502C68.2066 34.2628 68.2101 34.2769 68.2101 34.2911C68.2101 34.3054 68.2066 34.3195 68.1998 34.3321C68.193 34.3447 68.1832 34.3554 68.1712 34.3632L56.583 42.5762C56.5696 42.5842 56.5543 42.5887 56.5387 42.5891C56.523 42.5896 56.5075 42.5861 56.4936 42.5789C56.4797 42.5718 56.4679 42.5612 56.4592 42.5482C56.4506 42.5351 56.4454 42.5201 56.4442 42.5045V26.7499C56.4451 26.7342 56.4501 26.7189 56.4586 26.7057C56.4671 26.6924 56.479 26.6816 56.4929 26.6742C56.5069 26.6668 56.5225 26.6631 56.5383 26.6635C56.554 26.6639 56.5695 26.6684 56.583 26.6764ZM53.5738 12.728H54.396C54.4196 12.728 54.4423 12.737 54.4594 12.7533C54.4766 12.7695 54.4868 12.7917 54.488 12.8153V23.7123C54.488 23.7359 54.4789 23.7586 54.4627 23.7757C54.4464 23.7927 54.4242 23.8029 54.4006 23.8041H47.6298C47.6151 23.8029 47.6009 23.7982 47.5884 23.7904C47.5759 23.7826 47.5654 23.7719 47.5579 23.7592C47.5505 23.7465 47.5461 23.7322 47.5454 23.7175C47.5446 23.7027 47.5473 23.6881 47.5534 23.6746L53.4974 12.7739C53.5047 12.76 53.5157 12.7484 53.5292 12.7403C53.5426 12.7322 53.5581 12.7279 53.5738 12.728ZM51.8641 25.9207L43.6429 31.1833C43.6263 31.1911 43.6078 31.1937 43.5897 31.1909C43.5716 31.1881 43.5547 31.18 43.5413 31.1675C43.5279 31.1551 43.5184 31.1389 43.5143 31.1211C43.5101 31.1033 43.5113 31.0847 43.5178 31.0676L46.39 25.805C46.398 25.7916 46.4093 25.7804 46.4228 25.7725C46.4363 25.7646 46.4516 25.7603 46.4673 25.76H51.8162C51.8338 25.7624 51.8504 25.7697 51.8639 25.7812C51.8774 25.7927 51.8873 25.8079 51.8923 25.8249C51.8974 25.8419 51.8974 25.86 51.8924 25.877C51.8874 25.894 51.8775 25.9092 51.8641 25.9207ZM67.0106 31.1245L59.0147 25.9207C59.0012 25.9092 58.9914 25.894 58.9864 25.877C58.9814 25.86 58.9814 25.8419 58.9865 25.8249C58.9915 25.8079 59.0014 25.7927 59.0149 25.7812C59.0284 25.7697 59.0449 25.7624 59.0625 25.76H64.2202C64.2358 25.7603 64.2512 25.7646 64.2647 25.7725C64.2782 25.7804 64.2895 25.7916 64.2974 25.805L67.1356 31.0097C67.1419 31.0268 67.1429 31.0453 67.1386 31.0629C67.1343 31.0806 67.1249 31.0965 67.1115 31.1088C67.0981 31.1211 67.0814 31.1291 67.0634 31.1319C67.0454 31.1347 67.027 31.1321 67.0106 31.1245Z" fill="black"/>
</svg>
